<?xml version="1.0" encoding="UTF-8" standalone="no"?><!-- Generator: Gravit.io --><svg xmlns="http://www.w3.org/2000/svg" xmlns:xlink="http://www.w3.org/1999/xlink" style="isolation:isolate" viewBox="0 0 1045 463" width="1045pt" height="463pt"><defs><clipPath id="_clipPath_pLSaLqWnsVLKjmyQI5JwS4UnfrcBFGlu"><rect width="1045" height="463"/></clipPath></defs><g clip-path="url(#_clipPath_pLSaLqWnsVLKjmyQI5JwS4UnfrcBFGlu)"><g><path d=" M 129 31.6 C 103.7 50.2 35.3 101.1 11.3 119.3 C 5.6 123.6 1 127.7 1 128.3 C 1 130.2 3.7 133.9 9.4 139.7 C 16.4 147 18.1 146.9 29.5 138.2 C 34.5 134.5 51.3 121.8 66.8 110 C 82.4 98.2 97.4 86.9 100 85 C 102.7 83.1 108.5 78.8 113 75.5 C 140.2 55.6 136.9 56.6 148.7 64.6 C 154.1 68.2 159.6 72.1 161 73.1 C 220.3 118.2 258.5 146 261.3 146 C 263.1 146 276 131.8 276 129.8 C 276 128.1 267.5 121.2 242.5 102.7 C 232.6 95.3 206.7 76.1 185 59.9 C 138.4 25.1 139.6 26 137.8 26.1 C 137.1 26.1 133.1 28.6 129 31.6 Z " fill="rgb(255,215,0)"/><path d=" M 136.5 70.8 C 134.9 71.8 131.5 74 129 75.8 C 102.7 94.7 45.8 137.4 43.7 139.8 C 41.9 141.7 41.8 144.6 41.7 183.1 L 41.5 224.4 Q 41.5 224.788 41.5 226.688 C 41.5 228.388 40.9 229 41.5 230.9 C 42.1 233 42.6 233 81.8 233 C 103.6 233.1 146.7 233.3 177.5 233.6 C 208.3 233.9 234 233.7 234.6 233.3 C 236.3 232.2 236.3 230.5 236.1 182.8 L 236 140.2 L 200.3 113.3 C 157.2 81 140.8 69 140.1 69.1 C 139.8 69.1 138.2 69.9 136.5 70.8 Z  M 190.5 136.5 C 192.2 137.1 195 139 196.9 140.6 C 210.8 152.3 200.5 174.9 171.5 196 C 163.1 202.1 142.2 214 139.9 214 C 138.2 214 115.7 201.2 106.5 195 C 87.5 182.2 75.3 164.2 77.5 152.2 C 78.5 146.4 82.4 141.3 88.3 138.3 C 93 135.8 94.5 135.5 103.5 135.5 C 112.4 135.6 114.2 135.9 119.3 138.4 C 122.4 139.9 128.2 144 132 147.6 C 135.9 151.1 139.6 154 140.3 154 C 140.9 154 144.4 151.1 147.9 147.6 C 154.7 140.7 162.5 136.3 169.9 135 C 175.5 134.1 186.4 134.8 190.5 136.5 Z " fill="rgb(255,215,0)"/><path d=" M 844 117 C 831.9 118.8 813.6 128.8 801.3 140.3 C 785.4 155.2 775.6 178 774.7 202.4 L 774.5 208.3 L 767.5 209.7 C 753 212.6 746.7 218.1 747.2 227.5 L 747.5 232.5 L 758 233 C 772.4 233.7 774.8 235.2 776.5 244.2 C 778 252.1 770.9 259 761.4 259 C 754.2 259 749.4 254.3 738.6 236.8 C 729.6 222.1 720 216 706 216 C 693.3 216 686.3 220.5 681.8 231.5 C 677.7 241.4 678.8 242.8 687.3 238 C 693.6 234.5 700.5 233.7 705.8 235.9 C 709.1 237.3 712 241.4 712 244.7 C 712 248.8 709.6 254.6 706.9 257.1 C 703.3 260.4 695 261.7 686.6 260.1 C 673.2 257.6 669.6 253.4 668.6 239.1 C 668.2 233.9 667.6 229.2 667.3 228.7 C 666.7 227.7 660.8 233.9 652.8 243.7 L 647.8 250 L 643.7 246.6 C 637.4 241.6 628.3 238.6 621.1 239.3 C 613.9 239.9 609.5 241.9 603.9 247.1 C 601.6 249.2 599.4 251 599 251 C 598.7 251 597.4 249.6 596.1 247.9 C 593.2 244 588.3 241 584.6 241 C 581 241 574.5 244.6 572.3 247.9 C 571.4 249.3 570.2 252.4 569.5 255 L 568.4 259.5 L 403.6 259.5 C 313 259.5 238.5 259.3 238 259 C 237.5 258.7 237 255.8 236.8 252.5 L 236.5 246.5 L 138.8 246.2 L 41 246 L 41 253.8 L 41 261.6 L 36.4 266 C 29.9 272.4 27.8 276.9 27.7 285.1 C 27.5 294.4 31.3 301.7 39 307.2 L 44.5 311.1 L 301.5 311.6 C 442.9 311.8 560.9 312.3 563.7 312.6 C 568.4 313.1 569.1 313.4 569.6 315.8 C 571.6 324.9 576.5 329.5 584.1 329.4 C 589.5 329.3 596.4 325.5 597.5 322 C 598.4 319.1 599.6 319.5 604.8 324.1 C 612.3 330.6 614.5 331.5 624 331.5 C 633.3 331.5 637.3 330 643.9 324 C 645.7 322.4 647.5 321 647.9 321 C 648.2 321 650.3 323.8 652.5 327.1 C 657.8 335 664.4 341.4 666.4 340.7 C 667.6 340.2 668 338.6 668 334.3 C 668 323.3 671.4 316.9 679.4 312.8 C 685.2 309.7 700.7 309.7 704.7 312.6 C 711.2 317.5 713.6 325 710.6 330.8 C 708.3 335.2 705.5 336.4 697.9 336.3 C 691 336.2 688.1 335.2 684.3 331.7 C 683.1 330.6 681.4 330 680.6 330.3 C 678.3 331.2 680.8 340.2 685 345.4 C 692 354.2 700.1 357.2 711.3 355.1 C 723.5 352.9 732.4 345.5 741.9 329.8 C 744.8 324.9 748.6 319.5 750.3 317.6 C 756 311.6 765.3 310.7 772.2 315.4 C 778.2 319.4 778.4 328.8 772.7 334.5 C 769.6 337.6 769.1 337.7 758.2 338.4 L 747 339.2 L 747 343.4 C 747 353.7 751.6 358.1 765.6 360.9 L 774.5 362.7 L 775.2 370.1 C 777.8 396 784.7 411.5 801.2 427.7 C 810.1 436.6 814.5 439.8 823.5 444.3 C 836.9 451 842 452 862.7 452 C 878.7 452 882.3 451.7 888.4 449.9 C 916.9 441.4 940.6 415.9 948.6 385.1 C 949.5 381.7 949.8 381.6 957 380 C 967.9 377.5 973.9 375.6 980.1 372.5 C 998.7 363 1015.5 347.5 1023.2 332.4 C 1025.7 327.5 1029 319.6 1030.4 314.9 C 1032.8 306.9 1033 304.8 1033 287.7 C 1033 271 1032.8 268.4 1030.5 260.7 C 1029.2 256.1 1025.7 247.6 1022.7 241.9 C 1018.2 233 1016.2 230.3 1009 223.4 C 994.6 209.8 981.7 202.2 963.3 196.9 C 957.4 195.2 951.9 193.2 951.2 192.6 C 950.5 191.9 948.8 187.2 947.5 182.1 C 942.6 163.8 933.6 149.1 920.2 137.3 C 908.9 127.4 892.5 118.9 881 117.1 C 873.9 115.9 851.2 115.9 844 117 Z  M 874.4 148.6 C 884 151.3 894.9 159.7 902.6 170.2 C 907.1 176.2 913.2 188.8 912.4 190.1 C 912.1 190.7 906.6 193.7 900.2 196.8 C 889.7 201.9 887.5 203.4 878.9 212 C 873.6 217.2 866.9 224.5 864.1 228.3 C 861.2 232 858.4 234.8 857.9 234.4 C 857.4 234.1 857 232.2 857 230.1 C 857 222.8 851.6 222.4 844.9 229.1 C 839.7 234.3 837.8 238.4 837.1 245.5 C 836.7 249.3 836 251.5 835.3 251.5 C 834.6 251.5 830.7 248.4 826.6 244.7 C 820.6 239.3 818.4 236.4 815.6 230.7 C 807.3 213.2 806.7 187.5 814.1 172.7 C 824.1 152.8 851.2 142 874.4 148.6 Z  M 961.9 231.9 C 975.3 237 991 253.4 991 262.4 C 991 268.8 986.4 274.3 977.2 278.9 C 974.8 280.1 973 281.5 973.2 282 C 973.4 282.4 976.4 284.8 980 287.2 C 991.3 294.8 993.5 301.1 988.1 310.5 C 983.9 317.9 973.5 327.2 964.4 331.6 C 957.5 335.1 956 335.4 948.7 335.5 L 940.6 335.5 L 939.4 329 C 936.7 315.1 930.6 302.5 920.3 289.8 L 913.9 281.9 L 919.3 275.7 C 922.3 272.3 926.3 267 928.2 264 C 932.2 257.7 937.6 244.3 938.6 238.5 C 939.3 234.1 940.7 230.9 942.4 229.7 C 944.1 228.4 956.5 229.8 961.9 231.9 Z  M 902.9 244.5 C 897.5 253.7 888.8 263.6 887.2 262.6 C 885.7 261.7 888.6 250.2 891.2 246.4 C 893.6 242.9 907.3 233.4 907.8 234.8 C 908 235.4 905.8 239.7 902.9 244.5 Z  M 903.5 325.1 C 905.5 329 907 332.6 906.8 333.1 C 906.3 334.6 894.2 325.7 891.3 321.7 C 888.7 318 885.6 307.4 886.7 305.6 C 887.8 303.8 899.8 317.7 903.5 325.1 Z  M 836.4 321.6 C 836.7 322.5 837 324.5 837 326.2 C 837 332.3 839.3 337.4 844.4 342.3 C 852.2 349.8 856.4 349.6 857.6 341.8 C 858 339.7 858.6 338.1 859 338.2 C 859.4 338.4 863.1 342.5 867.2 347.5 C 880.7 363.6 886.7 368.4 904.8 377.4 C 909 379.5 912 381.7 912 382.5 C 912 384.9 906.2 395.8 901.4 402.6 C 895.8 410.6 889.3 416.3 881.1 420.3 C 875.1 423.2 873.6 423.5 863.3 423.9 C 851.1 424.2 842.9 422.5 832.6 417.3 C 816.2 409 807.5 390 809.5 366.5 C 810.9 348.9 815.7 338.2 826.8 327.3 C 830.9 323.3 834.6 320 835 320 C 835.5 320 836.1 320.7 836.4 321.6 Z " fill="rgb(255,215,0)"/></g></g></svg>